<svg
	xmlns="http://www.w3.org/2000/svg"

	viewBox="0 0 48 48"
	width="48"
	height="48"

	display="inline"
>

	<!-- Символ. -->
	<path
		style="
			fill: hsl(178, 14%, 32%);
			fill-opacity: 1;
			stroke: none;
			stroke-width: 1;
		"

		d="
			m 15.005084,33.015447 -1.160164,-1.16072 3.88583,-3.885995
			c 2.137207,-2.137297 3.88583,-3.904574 3.88583,-3.927281 0,-0.02271 -1.748624,-1.789985 -3.885832,-3.927284
			l -3.885833,-3.885998 1.180992,-1.181537 1.180992,-1.181538 3.906913,3.906749 3.906913,3.906749 3.906823,-3.906658 3.906823,-3.906659 1.170902,1.170903 1.170903,1.170902 -3.906659,3.906823 -3.906658,3.906822 3.916831,3.916996 3.916831,3.916996 -1.118986,1.121874
			c -0.615442,0.617031 -1.15346,1.140994 -1.195596,1.164362 -0.06643,0.03684 -0.592426,-0.4728 -3.959876,-3.836798 -2.135796,-2.133606 -3.90136,-3.879285 -3.923473,-3.879285 -0.02211,0 -1.784174,1.744042 -3.915688,3.875648 -2.131515,2.131606 -3.884971,3.875648 -3.896568,3.875648 -0.0116,0 -0.54316,-0.522324 -1.18125,-1.160719
			z
		"
	/>

	<!-- Окружность. -->
	<circle
		style="
			fill: none;
			fill-rule: evenodd;
			stroke: hsl(178, 14%, 32%);
			stroke-width: 2;
			stroke-dasharray: none;
			stroke-opacity: 1;
			image-rendering: auto;
		"

		cx="24"
		cy="24"
		r="22"
	/>

</svg>
