<svg
	xmlns="http://www.w3.org/2000/svg"

	viewBox="0 0 48 48"
	width="48"
	height="48"

	display="inline"
>

	<!-- Символ. -->
	<path
		style="
			fill: hsl(178, 14%, 32%);
			fill-opacity: 1;
			stroke: none;
			stroke-width: 1;
		"

		d="
			m 15.005148,33.015511 -2.030804,-2.031121 3.481648,-3.481832 3.481647,-3.481833 -3.471444,-3.471627 -3.471443,-3.471628 2.031154,-2.030837 2.031154,-2.030837 3.450837,3.450651
			c 1.897961,1.897858 3.469493,3.450651 3.492295,3.450651 0.0228,0 1.496336,-1.456113 3.274519,-3.235807 1.778184,-1.779694 3.341192,-3.330486 3.473353,-3.446205
			l 0.240292,-0.210398 2.029772,2.02579 2.029772,2.025791 -3.461774,3.461957
			c -1.903976,1.904077 -3.461774,3.480528 -3.461774,3.503225 0,0.0227 1.557528,1.598877 3.461173,3.502624
			l 3.461174,3.461357 -2.031155,2.030837 -2.031154,2.030837 -3.481832,-3.481647 -3.481833,-3.481647 -3.471594,3.47141
			c -1.909377,1.909275 -3.480951,3.47141 -3.492387,3.47141 -0.01143,0 -0.934654,-0.914004 -2.051596,-2.031121
			z
		"
	/>

	<!-- Окружность. -->
	<circle
		style="
			fill: none;
			fill-rule: evenodd;
			stroke: hsl(178, 14%, 32%);
			stroke-width: 3;
			stroke-dasharray: none;
			stroke-opacity: 1;
			image-rendering: auto;
		"

		cx="24"
		cy="24"
		r="21.5"
	/>

</svg>
